<?xml version="1.0" encoding="UTF-8"?>
<svg version="1.1" xmlns="http://www.w3.org/2000/svg" width="211" height="204">
<path d="M0 0 C69.63 0 139.26 0 211 0 C211 67.32 211 134.64 211 204 C141.37 204 71.74 204 0 204 C0 136.68 0 69.36 0 0 Z " fill="#FCFDFE" transform="translate(0,0)"/>
<path d="M0 0 C13.82322942 -0.54745463 24.86683304 -0.26722247 35.9921875 9.00390625 C40.9688273 13.95149951 45.56254776 20.48368143 46.25396729 27.62199402 C46.25555847 28.557798 46.25714966 29.49360199 46.25878906 30.45776367 C46.26509338 31.52625046 46.27139771 32.59473724 46.27789307 33.69560242 C46.2738446 34.84148331 46.26979614 35.9873642 46.265625 37.16796875 C46.26753845 38.35795975 46.2694519 39.54795074 46.27142334 40.77400208 C46.2727835 43.29147554 46.2690989 45.80895605 46.26074219 48.32641602 C46.25008785 52.15592479 46.26061911 55.98495938 46.2734375 59.81445312 C46.27211495 62.26562603 46.26955059 64.71679864 46.265625 67.16796875 C46.26967346 68.30372849 46.27372192 69.43948822 46.27789307 70.60966492 C46.19552834 84.77514737 43.289747 95.622972 33.5 106.25 C22.33476758 116.87306635 9.68839262 119.59781401 -5.25 119.34375 C-11.32532964 119.05717785 -15.87442975 117.21202402 -21 114 C-21.7734375 113.5771875 -22.546875 113.154375 -23.34375 112.71875 C-33.39808516 106.7963334 -39.70534052 97.64499409 -43.18359375 86.640625 C-44.55714153 80.51552196 -46.08379193 72.83049987 -42.9375 67.046875 C-40.14642853 64.15612241 -37.62002712 63.0467945 -33.6875 62.75 C-29.72253548 63.01881115 -28.06369713 63.53202175 -25 66 C-22.26975938 69.23584073 -21.73944833 72.2368473 -21.125 76.3125 C-20.01591431 83.11367011 -17.40187627 87.59812373 -12.5625 92.4375 C-6.45089396 96.16408905 2.07206858 95.69533706 9 95 C14.37783498 93.44853383 17.38223544 90.01932594 20.1875 85.29296875 C24.46892636 76.42501673 23.78792082 66.94322916 23.61743164 57.28881836 C23.56220801 54.04535031 23.55590688 50.80443908 23.55664062 47.56054688 C23.5419071 45.48956114 23.52442738 43.41859272 23.50390625 41.34765625 C23.50056778 40.3830397 23.49722931 39.41842316 23.49378967 38.42457581 C23.3896318 33.51660516 23.28566721 29.92507171 20 26 C15.74136188 23.16090792 11.99572221 23.25900771 7 24 C3.73022394 25.68633188 3.73022394 25.68633188 2 29 C1.63473408 31.52327378 1.49592909 34.01337719 1.359375 36.55859375 C0.75911916 40.63641874 -0.97736845 42.25215314 -4 45 C-7.16040973 46.91287957 -8.8392997 47.00563861 -12.5625 46.875 C-16.97399993 45.75207275 -18.60595285 44.05882409 -21.09765625 40.37890625 C-22.42482148 36.88001609 -22.2096236 33.43438131 -22.125 29.75 C-22.11597656 29.00492188 -22.10695313 28.25984375 -22.09765625 27.4921875 C-22.07418358 25.66131941 -22.03831525 23.83061762 -22 22 C-20.92878906 22.33128906 -19.85757813 22.66257812 -18.75390625 23.00390625 C-14.38653647 24.16278169 -11.29499567 24.36777753 -7 23 C-3.56688763 20.90072378 -1.23713086 18.35569629 1 15 C1.27910695 12.91844248 1.27910695 12.91844248 1.1875 10.6875 C1.17783203 9.57955078 1.17783203 9.57955078 1.16796875 8.44921875 C0.97184944 5.58952549 0.50854491 2.81937298 0 0 Z " fill="#0D4CFC" transform="translate(98,27)"/>
<path d="M0 0 C14.17304088 -0.56130855 24.66366271 -0.05144928 36.125 9.21875 C38.02953183 11.02805523 39.55985082 12.80377249 41 15 C41 15.66 41 16.32 41 17 C40.34 17 39.68 17 39 17 C37.484375 15.390625 37.484375 15.390625 35.75 13.25 C29.43843507 5.93168238 23.26496247 3.97892402 14 2 C14.825 2.94875 15.65 3.8975 16.5 4.875 C19 7.75 19 7.75 19 10 C19.66 10 20.32 10 21 10 C21.27714844 10.90363281 21.55429688 11.80726562 21.83984375 12.73828125 C22.38318359 14.50751953 22.38318359 14.50751953 22.9375 16.3125 C23.47697266 18.07013672 23.47697266 18.07013672 24.02734375 19.86328125 C24.66372279 21.91553977 25.32053379 23.96160137 26 26 C26.05909758 27.45870088 26.05936379 28.92022634 26.02172852 30.37963867 C26.00163223 31.26032516 25.98153595 32.14101166 25.96083069 33.04838562 C25.92027809 34.46882927 25.92027809 34.46882927 25.87890625 35.91796875 C25.84348976 37.37654045 25.84348976 37.37654045 25.80735779 38.86457825 C25.73074376 41.97236817 25.64670945 45.0799075 25.5625 48.1875 C25.50927707 50.2936075 25.45653668 52.39972726 25.40429688 54.50585938 C25.27513159 59.67073181 25.1393108 64.83539166 25 70 C24.67 70 24.34 70 24 70 C23.98541748 68.8447583 23.97083496 67.6895166 23.95581055 66.49926758 C23.89773178 62.20322088 23.8204995 57.90769306 23.73754883 53.61206055 C23.70434451 51.7547245 23.67629859 49.89728863 23.65356445 48.03979492 C23.61993558 45.36594202 23.56761626 42.69300007 23.51171875 40.01953125 C23.50532883 39.19226028 23.4989389 38.36498932 23.49235535 37.51264954 C23.37481848 32.87847957 23.01228753 29.75058894 20 26 C15.74136188 23.16090792 11.99572221 23.25900771 7 24 C3.73022394 25.68633188 3.73022394 25.68633188 2 29 C1.63473408 31.52327378 1.49592909 34.01337719 1.359375 36.55859375 C0.75911916 40.63641874 -0.97736845 42.25215314 -4 45 C-7.16040973 46.91287957 -8.8392997 47.00563861 -12.5625 46.875 C-16.97399993 45.75207275 -18.60595285 44.05882409 -21.09765625 40.37890625 C-22.42482148 36.88001609 -22.2096236 33.43438131 -22.125 29.75 C-22.11597656 29.00492188 -22.10695313 28.25984375 -22.09765625 27.4921875 C-22.07418358 25.66131941 -22.03831525 23.83061762 -22 22 C-20.92878906 22.33128906 -19.85757813 22.66257812 -18.75390625 23.00390625 C-14.38653647 24.16278169 -11.29499567 24.36777753 -7 23 C-3.56688763 20.90072378 -1.23713086 18.35569629 1 15 C1.27910695 12.91844248 1.27910695 12.91844248 1.1875 10.6875 C1.18105469 9.94886719 1.17460938 9.21023437 1.16796875 8.44921875 C0.97184944 5.58952549 0.50854491 2.81937298 0 0 Z " fill="#1E65E6" transform="translate(98,27)"/>
<path d="M0 0 C0.7734375 -0.00515625 1.546875 -0.0103125 2.34375 -0.015625 C4.5 0.25 4.5 0.25 7.5 2.25 C7.83 1.59 8.16 0.93 8.5 0.25 C10.81 0.25 13.12 0.25 15.5 0.25 C15.61654436 3.8122231 15.6873639 7.37395342 15.75 10.9375 C15.80027344 12.44860352 15.80027344 12.44860352 15.8515625 13.99023438 C15.95017679 21.46026679 15.95017679 21.46026679 13.671875 25.45703125 C11.5 27.25 11.5 27.25 8.5 27.25 C8.17 26.59 7.84 25.93 7.5 25.25 C6.51 25.91 5.52 26.57 4.5 27.25 C-2.05749009 28.12433201 -2.05749009 28.12433201 -5.54296875 26.01171875 C-9.09948769 23.05650817 -11.17098409 21.03315094 -11.73828125 16.234375 C-11.93440875 10.32990488 -10.94525713 7.07335999 -7.5 2.25 C-4.377998 0.16866533 -3.56733011 -0.0237822 0 0 Z " fill="#2C2A40" transform="translate(86.5,168.75)"/>
<path d="M0 0 C3.17454605 1.65494746 5.37675639 3.75351278 7 7 C7 9.64 7 12.28 7 15 C0.73 15 -5.54 15 -12 15 C-9.7592547 20.02822886 -9.7592547 20.02822886 -7.02734375 20.55859375 C-2.54248573 20.46098764 -2.54248573 20.46098764 1 18 C4.125 17.875 4.125 17.875 7 18 C6.76627013 21.15535324 5.7298257 22.3128334 3.625 24.75 C-0.09034408 27.62379626 -3.71664527 27.7602783 -8.30078125 27.56640625 C-12.60583057 26.66303121 -15.24690454 24.34180769 -18 21 C-19.97338848 17.05322303 -19.44290148 12.30160477 -19 8 C-14.91861974 -0.3085241 -8.67335373 -1.26590857 0 0 Z " fill="#211F36" transform="translate(50,169)"/>
<path d="M0 0 C0.33 7.59 0.66 15.18 1 23 C2.155 21.185 3.31 19.37 4.5 17.5 C8.28075787 12.22719304 8.28075787 12.22719304 11.3125 11.26953125 C13.5 11.3125 13.5 11.3125 17 12 C17 12.66 17 13.32 17 14 C15.33333333 15.66666667 13.66666667 17.33333333 12 19 C10.00916823 21.4251788 10.00916823 21.4251788 9 24 C10.6064094 28.23346566 13.71337174 31.50499956 16.5390625 34.9765625 C18 37 18 37 18 39 C13.08977035 39.87682672 13.08977035 39.87682672 10 39 C6.80876156 36.02438578 4.28741004 32.71095778 2 29 C2 28.34 2 27.68 2 27 C1.34 27 0.68 27 0 27 C0.0825 28.2375 0.165 29.475 0.25 30.75 C0.2557276 33.98036785 0.16005361 34.7792364 -1.8125 37.5 C-4 39 -4 39 -7 39 C-7.07424001 34.08873797 -7.12864411 29.17780366 -7.16479492 24.26611328 C-7.17986754 22.59580799 -7.2003292 20.92554219 -7.22631836 19.25537109 C-7.26276973 16.85243987 -7.27974131 14.45003256 -7.29296875 12.046875 C-7.30845261 11.30193787 -7.32393646 10.55700073 -7.33988953 9.78948975 C-7.34090961 6.63628484 -7.167952 4.33144253 -5.73168945 1.49707031 C-4 0 -4 0 0 0 Z " fill="#27253C" transform="translate(183,157)"/>
<path d="M0 0 C2.475 0.99 2.475 0.99 5 2 C8.18490007 2.2773501 8.18490007 2.2773501 11 0 C13.0859375 -0.37109375 13.0859375 -0.37109375 15.375 -0.4375 C16.12523438 -0.47746094 16.87546875 -0.51742187 17.6484375 -0.55859375 C21.47283389 0.34985921 22.7453681 1.78586626 25 5 C25.60473272 8.7911802 25.47163337 12.48595461 25.3125 16.3125 C25.28994141 17.33923828 25.26738281 18.36597656 25.24414062 19.42382812 C25.18537575 21.9507179 25.10327849 24.47460255 25 27 C22.69 27 20.38 27 18 27 C17.93941406 25.72382813 17.87882812 24.44765625 17.81640625 23.1328125 C17.73200432 21.46352984 17.64735614 19.79425963 17.5625 18.125 C17.52318359 17.28324219 17.48386719 16.44148438 17.44335938 15.57421875 C17.40146484 14.76855469 17.35957031 13.96289062 17.31640625 13.1328125 C17.27974854 12.38918457 17.24309082 11.64555664 17.20532227 10.87939453 C17.10044135 8.91135688 17.10044135 8.91135688 16 7 C13.08347826 6.83318891 13.08347826 6.83318891 10 7 C7.64641749 9.35358251 7.72128096 9.92968394 7.5859375 13.1328125 C7.54726562 13.93847656 7.50859375 14.74414062 7.46875 15.57421875 C7.4378125 16.41597656 7.406875 17.25773437 7.375 18.125 C7.33632812 18.97449219 7.29765625 19.82398438 7.2578125 20.69921875 C7.16343506 22.79911684 7.08062414 24.89952891 7 27 C4.69 27 2.38 27 0 27 C0 18.09 0 9.18 0 0 Z " fill="#28263C" transform="translate(109,169)"/>
<path d="M0 0 C0.99 1.485 0.99 1.485 2 3 C5.02224433 3.40402225 5.02224433 3.40402225 8.4375 3.25 C9.59121094 3.23453125 10.74492188 3.2190625 11.93359375 3.203125 C15.03998975 3.12713172 15.03998975 3.12713172 18 2 C20.52259061 3.97420135 20.9929808 4.96745642 21.6875 8.1875 C21.790625 9.115625 21.89375 10.04375 22 11 C22.33 11 22.66 11 23 11 C23.49405138 15.1500316 23.18902785 16.71915862 20.8125 20.25 C18.06849084 22.93303118 16.70396433 24.20629336 13 25 C9.07573864 24.86230662 6.80344672 24.62972851 3.6875 22.1875 C0.02002769 17.43336923 -0.26125773 13.68245202 -0.125 7.75 C-0.11597656 7.00492188 -0.10695313 6.25984375 -0.09765625 5.4921875 C-0.07418358 3.66131941 -0.03831525 1.83061762 0 0 Z " fill="#06BCFD" transform="translate(76,49)"/>
<path d="M0 0 C3.80057143 0.54293878 5.64957828 1.9922979 8 5 C8.50170898 7.57788086 8.50170898 7.57788086 8.49609375 10.46484375 C8.49673828 11.51220703 8.49738281 12.55957031 8.49804688 13.63867188 C8.47806641 14.72728516 8.45808594 15.81589844 8.4375 16.9375 C8.44458984 18.02224609 8.45167969 19.10699219 8.45898438 20.22460938 C8.41426163 25.82183302 8.29675134 29.30583939 5 34 C2.73528521 36.19334773 1.56996855 36.93523085 -1.578125 37.29296875 C-2.45984375 37.25816406 -3.3415625 37.22335938 -4.25 37.1875 C-5.58804687 37.14689453 -5.58804687 37.14689453 -6.953125 37.10546875 C-7.62859375 37.07066406 -8.3040625 37.03585938 -9 37 C-9 35.02 -9 33.04 -9 31 C-7.865625 30.87625 -6.73125 30.7525 -5.5625 30.625 C-4.386875 30.41875 -3.21125 30.2125 -2 30 C-0.60439955 27.20879909 -0.78191712 24.79794308 -0.68359375 21.6796875 C-0.64169922 20.42285156 -0.59980469 19.16601562 -0.55664062 17.87109375 C-0.51732422 16.55238281 -0.47800781 15.23367187 -0.4375 13.875 C-0.39430488 12.53514249 -0.35069027 11.19529844 -0.30664062 9.85546875 C-0.20029019 6.57042185 -0.09826192 3.28529719 0 0 Z " fill="#2C2A41" transform="translate(18,159)"/>
<path d="M0 0 C4 1 4 1 6 3 C6.125 6.125 6.125 6.125 6 9 C8.64 9 11.28 9 14 9 C13.125 12.875 13.125 12.875 12 14 C10.02 14 8.04 14 6 14 C6.33 18.95 6.66 23.9 7 29 C9.31 29.66 11.62 30.32 14 31 C14 32.65 14 34.3 14 36 C12.23050905 36.10815225 10.45912513 36.18566083 8.6875 36.25 C7.70136719 36.29640625 6.71523437 36.3428125 5.69921875 36.390625 C3 36 3 36 1.15625 34.5625 C-0.60380243 30.66184326 -0.31615467 26.9725122 -0.1875 22.75 C-0.17396484 21.90953125 -0.16042969 21.0690625 -0.14648438 20.203125 C-0.11123464 18.13514062 -0.0574302 16.06748729 0 14 C-1.65 14 -3.3 14 -5 14 C-5 12.35 -5 10.7 -5 9 C-3.35 9 -1.7 9 0 9 C0 6.03 0 3.06 0 0 Z " fill="#1F1D34" transform="translate(143,160)"/>
<path d="M0 0 C2.75329021 1.79562405 4.52627461 3.05254922 6 6 C6.39447548 10.18144011 6.45035186 12.30946048 4.125 15.875 C1.4126761 18.5873239 0.53758847 18.93914093 -3.3125 19.375 C-7.90598187 18.90786625 -9.11447985 17.47959782 -12 14 C-12.33 13.67 -12.66 13.34 -13 13 C-13.40038554 8.83599038 -13.44184328 6.67749304 -11.125 3.125 C-7.54668265 -0.45331735 -4.99886778 -0.42363286 0 0 Z " fill="#FC5E50" transform="translate(89,27)"/>
<path d="M0 0 C4.80437837 0.47101749 8.0549844 1.1969626 12 4 C12.845625 4.556875 13.69125 5.11375 14.5625 5.6875 C17.71525413 8.67857443 19.72895398 11.83182114 21 16 C21 18.31 21 20.62 21 23 C13.575 22.01 13.575 22.01 6 21 C5.67 18.36 5.34 15.72 5 13 C4.34 13 3.68 13 3 13 C3 10.69 3 8.38 3 6 C2.34 6 1.68 6 1 6 C0.67 4.02 0.34 2.04 0 0 Z " fill="#0B34FB" transform="translate(98,27)"/>
<path d="M0 0 C5 2 5 2 7 4 C7.17517747 6.72485728 7.23149133 9.34659362 7.1953125 12.0703125 C7.1924826 12.86654022 7.18965271 13.66276794 7.18673706 14.48312378 C7.1755264 17.03056763 7.15042062 19.57766211 7.125 22.125 C7.11497133 23.85025535 7.10584528 25.57551619 7.09765625 27.30078125 C7.07558422 31.53398914 7.04104867 35.7669353 7 40 C4.69 40 2.38 40 0 40 C0 26.8 0 13.6 0 0 Z " fill="#29263D" transform="translate(63,156)"/>
<path d="M0 0 C0.33 0 0.66 0 1 0 C2.40374866 6.69480129 2.01015395 10.63227979 -1.3359375 16.6328125 C-4.71390561 21.43809108 -9.40980861 25.95123876 -15 28 C-17.62426505 28.13958857 -20.13292747 28.18931369 -22.75 28.125 C-23.79607422 28.11146484 -23.79607422 28.11146484 -24.86328125 28.09765625 C-26.57566958 28.07419888 -28.28788004 28.03833104 -30 28 C-30 28.66 -30 29.32 -30 30 C-25.545 30.99 -25.545 30.99 -21 32 C-21 32.66 -21 33.32 -21 34 C-17.33148273 34.06171337 -13.66866979 34.04770702 -10 34 C-9.22527344 34.00773437 -8.45054688 34.01546875 -7.65234375 34.0234375 C-0.01155381 33.71836059 6.58708424 29.61588652 11.7734375 24.12109375 C13.49777597 21.81366972 14.84338825 19.68237978 15.4921875 16.85546875 C15.65976563 16.24316406 15.82734375 15.63085938 16 15 C16.66 14.67 17.32 14.34 18 14 C18.69337792 10.9600352 18.69337792 10.9600352 19.125 7.4375 C19.29257813 6.23996094 19.46015625 5.04242188 19.6328125 3.80859375 C19.81457031 2.41833984 19.81457031 2.41833984 20 1 C20.33 1 20.66 1 21 1 C21.90970268 11.74796871 20.1327954 17.77842982 13.32421875 26.03125 C6.5076072 33.42766529 -2.01278557 36.51716013 -11.875 37.3125 C-20.47981385 37.02623418 -28.54927746 33.68608948 -35 28 C-36.25 25.80859375 -36.25 25.80859375 -37 24 C-35.906875 24.33 -34.81375 24.66 -33.6875 25 C-25.36043437 27.01200704 -17.82325048 27.03172046 -10.23046875 22.734375 C-3.52747754 17.52224173 -1.37257616 10.16666657 -0.2265625 2.0546875 C-0.15179688 1.37664062 -0.07703125 0.69859375 0 0 Z " fill="#0521F5" transform="translate(122,97)"/>
<path d="M0 0 C2.64 0 5.28 0 8 0 C8 8.91 8 17.82 8 27 C5.36 27 2.72 27 0 27 C0 18.09 0 9.18 0 0 Z " fill="#454357" transform="translate(162,169)"/>
<path d="M0 0 C1.38625787 4.15877361 0.08301647 5.6644966 -1.8125 9.5625 C-6.81391857 19.46654051 -14.45133363 27.90133617 -25 32 C-25.99 32 -26.98 32 -28 32 C-28 31.34 -28 30.68 -28 30 C-27.38125 29.896875 -26.7625 29.79375 -26.125 29.6875 C-23.63473516 29.12474627 -23.63473516 29.12474627 -22 26 C-23.86604873 24.13395127 -26.54359178 24.82911402 -29.03369141 24.75952148 C-36.91105969 24.52948549 -43.0243319 24.00455021 -50 20 C-50 19.34 -50 18.68 -50 18 C-49.40832031 18.20496094 -48.81664063 18.40992188 -48.20703125 18.62109375 C-37.2164646 22.36828532 -28.05049929 23.29114279 -17 19 C-9.31395064 14.63442979 -3.53967608 8.06259551 0 0 Z " fill="#0CCFF8" transform="translate(142,111)"/>
<path d="M0 0 C3.5625 0.3125 3.5625 0.3125 5.5 1.3125 C7.21818309 4.54672699 7.06668159 7.78322889 6.5625 11.3125 C5.5 13.8125 5.5 13.8125 3.5625 15.3125 C0 15.75 0 15.75 -3.4375 15.3125 C-5.60471782 12.06167327 -5.70971018 11.02017847 -5.6875 7.25 C-5.69265625 6.37214844 -5.6978125 5.49429688 -5.703125 4.58984375 C-5.2409753 0.62758972 -3.81310891 0.34664626 0 0 Z " fill="#F6F7F9" transform="translate(88.4375,174.6875)"/>
<path d="M0 0 C1.8359375 1.5234375 1.8359375 1.5234375 3 3 C2.01 3.495 2.01 3.495 1 4 C1 6.31 1 8.62 1 11 C-3.29 11 -7.58 11 -12 11 C-10 6 -10 6 -6.875 4.1875 C-5.92625 3.795625 -4.9775 3.40375 -4 3 C-7.28999282 2.58168596 -7.28999282 2.58168596 -11 3 C-13.81331378 5.39583651 -13.81331378 5.39583651 -16 8 C-16.66 8 -17.32 8 -18 8 C-17.12800528 5.06692685 -16.31296033 3.29276934 -14.0625 1.1875 C-9.50442984 -0.57991496 -4.82720033 -0.76218953 0 0 Z " fill="#2F2C41" transform="translate(50,169)"/>
<path d="M0 0 C12.48419294 -0.71451661 21.33078804 1.29696092 31.125 9.21875 C33.02953183 11.02805523 34.55985082 12.80377249 36 15 C36 15.66 36 16.32 36 17 C35.34 17 34.68 17 34 17 C32.484375 15.390625 32.484375 15.390625 30.75 13.25 C24.43843507 5.93168238 18.26496247 3.97892402 9 2 C9.825 2.94875 10.65 3.8975 11.5 4.875 C14 7.75 14 7.75 14 10 C14.66 10 15.32 10 16 10 C16.41572266 11.35544922 16.41572266 11.35544922 16.83984375 12.73828125 C17.20207031 13.91777344 17.56429687 15.09726562 17.9375 16.3125 C18.29714844 17.48425781 18.65679687 18.65601563 19.02734375 19.86328125 C19.66372279 21.91553977 20.32053379 23.96160137 21 26 C20.0625 28.1875 20.0625 28.1875 19 30 C18.76925781 29.09378906 18.53851563 28.18757813 18.30078125 27.25390625 C14.70284289 13.20446768 14.70284289 13.20446768 5 3 C2.3205355 1.75983331 2.3205355 1.75983331 0 1 C0 0.67 0 0.34 0 0 Z " fill="#3CC6EF" transform="translate(103,27)"/>
<path d="M0 0 C4.18478866 1.80706783 6.24874016 3.79697639 8 8 C8.53160527 11.65930228 8.81250464 15.30828104 9 19 C7.08189124 16.12283687 6.49271329 14.34757263 5.6875 11.0625 C4.692255 7.65876211 4.04733854 6.05501507 1.6875 3.3125 C-0.95162715 1.8011439 -0.95162715 1.8011439 -4 1.875 C-8.12225253 3.4208447 -9.66668168 5.29414149 -12 9 C-13.34752715 17.59048561 -9.85465531 26.1095215 -5 33 C-4.15283636 35.31905131 -3.57769053 37.59295613 -3 40 C-9.3280196 34.93758432 -11.50210231 27.49369308 -14 20 C-15.03433338 7.97218043 -15.03433338 7.97218043 -12.953125 4.00390625 C-8.93694783 0.02316594 -5.47644231 -0.37128422 0 0 Z " fill="#1B1AE1" transform="translate(68,90)"/>
<path d="M0 0 C1.18335937 0.08701172 1.18335937 0.08701172 2.390625 0.17578125 C3.18984375 0.22089844 3.9890625 0.26601562 4.8125 0.3125 C5.41578125 0.37050781 6.0190625 0.42851562 6.640625 0.48828125 C6.970625 1.80828125 7.300625 3.12828125 7.640625 4.48828125 C6.67125 4.96265625 5.701875 5.43703125 4.703125 5.92578125 C1.83585063 7.19022072 1.83585063 7.19022072 0.640625 8.48828125 C0.40869635 10.00297573 0.22847262 11.52582687 0.078125 13.05078125 C-0.00566406 13.87707031 -0.08945313 14.70335937 -0.17578125 15.5546875 C-0.23636719 16.19277344 -0.29695313 16.83085937 -0.359375 17.48828125 C-1.019375 17.15828125 -1.679375 16.82828125 -2.359375 16.48828125 C-2.689375 17.80828125 -3.019375 19.12828125 -3.359375 20.48828125 C-4.019375 20.15828125 -4.679375 19.82828125 -5.359375 19.48828125 C-5.9140625 16.50390625 -5.9140625 16.50390625 -6.234375 12.73828125 C-6.35554688 11.5059375 -6.47671875 10.27359375 -6.6015625 9.00390625 C-6.28108986 4.35188404 -4.86914307 1.00768689 0 0 Z " fill="#1D1A33" transform="translate(82.359375,169.51171875)"/>
<path d="M0 0 C1.9375 0.25 1.9375 0.25 4 1 C6 4 6 4 6 12 C0.72 12 -4.56 12 -10 12 C-10 11.67 -10 11.34 -10 11 C-8.02 10.67 -6.04 10.34 -4 10 C-6.64 10 -9.28 10 -12 10 C-12 9.34 -12 8.68 -12 8 C-8.04 8 -4.08 8 0 8 C-0.2784375 6.2984375 -0.2784375 6.2984375 -0.5625 4.5625 C-0.706875 3.386875 -0.85125 2.21125 -1 1 C-0.67 0.67 -0.34 0.34 0 0 Z " fill="#19172C" transform="translate(51,172)"/>
<path d="M0 0 C1.32 0.99 2.64 1.98 4 3 C3.71125 3.99 3.4225 4.98 3.125 6 C1.98624782 9.97749867 0.98680107 13.98230993 0 18 C-0.33 18 -0.66 18 -1 18 C-1.33 14.04 -1.66 10.08 -2 6 C-3.65 6.33 -5.3 6.66 -7 7 C-9.43666765 7.06701506 -11.87501742 7.08528021 -14.3125 7.0625 C-15.56675781 7.05347656 -16.82101563 7.04445313 -18.11328125 7.03515625 C-19.06589844 7.02355469 -20.01851563 7.01195312 -21 7 C-20.67 5.68 -20.34 4.36 -20 3 C-19.01 3.5259375 -19.01 3.5259375 -18 4.0625 C-13.38269357 5.50540826 -9.26175289 5.05406219 -4.9296875 3.03515625 C-3.25235357 2.08104525 -1.62103157 1.04691622 0 0 Z " fill="#1089F2" transform="translate(98,46)"/>
<path d="M0 0 C-0.99 0.33 -1.98 0.66 -3 1 C-3 1.99 -3 2.98 -3 4 C-3.66 4 -4.32 4 -5 4 C-4.896875 4.680625 -4.79375 5.36125 -4.6875 6.0625 C-5.13555589 10.27422541 -7.39300676 12.76919052 -10 16 C-12.58974814 13.73311171 -12.96856311 13.24251316 -13.4375 9.625 C-12.93570355 5.46725796 -11.92413584 3.92413584 -9 1 C-6.04335481 -0.4783226 -3.25770263 -0.06032783 0 0 Z " fill="#FD8E46" transform="translate(89,27)"/>
<path d="M0 0 C0.33 0 0.66 0 1 0 C1.0291189 4.54165313 1.0468389 9.0832821 1.0625 13.625 C1.07087891 14.91019531 1.07925781 16.19539063 1.08789062 17.51953125 C1.09111328 18.76347656 1.09433594 20.00742188 1.09765625 21.2890625 C1.10289307 22.43068848 1.10812988 23.57231445 1.11352539 24.74853516 C1.00277056 27.92064889 0.5692115 30.88185774 0 34 C0 34.66 0 35.32 0 36 C-3.3 36 -6.6 36 -10 36 C-10 34.02 -10 32.04 -10 30 C-8.865625 29.87625 -7.73125 29.7525 -6.5625 29.625 C-5.386875 29.41875 -4.21125 29.2125 -3 29 C-2.67 28.34 -2.34 27.68 -2 27 C-1.34 27 -0.68 27 0 27 C0 18.09 0 9.18 0 0 Z " fill="#1D1A33" transform="translate(19,160)"/>
<path d="M0 0 C0.66 0 1.32 0 2 0 C2 3.63 2 7.26 2 11 C2.66 10.67 3.32 10.34 4 10 C4.33 9.01 4.66 8.02 5 7 C5.33 7 5.66 7 6 7 C6.33 4.69 6.66 2.38 7 0 C7.33 0 7.66 0 8 0 C8.16947579 1.41633336 8.33545507 2.83308533 8.5 4.25 C8.5928125 5.03890625 8.685625 5.8278125 8.78125 6.640625 C9.31284916 12.37430168 9.31284916 12.37430168 8 15 C11.3 15 14.6 15 18 15 C17.01 16.485 17.01 16.485 16 18 C11.95838051 18.61651823 9.48635811 18.90202649 5.953125 16.7578125 C2.96426217 14.27532725 1.24882539 12.74647617 0 9 C-0.06740865 7.43881572 -0.08514456 5.8749748 -0.0625 4.3125 C-0.05347656 3.50425781 -0.04445313 2.69601563 -0.03515625 1.86328125 C-0.02355469 1.24839844 -0.01195313 0.63351563 0 0 Z " fill="#353247" transform="translate(75,178)"/>
<path d="M0 0 C0.33 0 0.66 0 1 0 C1.90970268 10.74796871 0.1327954 16.77842982 -6.67578125 25.03125 C-10.82905845 29.53779446 -15.79777308 33.51451545 -22.0625 34.23828125 C-24 34.25 -24 34.25 -27 34 C-27 33.67 -27 33.34 -27 33 C-26.05125 32.79375 -25.1025 32.5875 -24.125 32.375 C-15.79557799 29.95405011 -9.31408688 25.51486101 -5 18 C-4.83628906 17.29101562 -4.67257813 16.58203125 -4.50390625 15.8515625 C-4.33761719 15.24054688 -4.17132813 14.62953125 -4 14 C-3.34 13.67 -2.68 13.34 -2 13 C-1.30662208 9.9600352 -1.30662208 9.9600352 -0.875 6.4375 C-0.70742187 5.23996094 -0.53984375 4.04242188 -0.3671875 2.80859375 C-0.24601562 1.88175781 -0.12484375 0.95492187 0 0 Z " fill="#041EED" transform="translate(142,98)"/>
<path d="M0 0 C2.375 -0.1875 2.375 -0.1875 5 0 C5.66 0.99 6.32 1.98 7 3 C6.278125 3.680625 5.55625 4.36125 4.8125 5.0625 C1.76435721 8.10193381 -0.59841812 11.43193549 -3 15 C-3 15.33 -3 15.66 -3 16 C-1.02 16.33 0.96 16.66 3 17 C3 17.33 3 17.66 3 18 C-3.625 18.25 -3.625 18.25 -7 16 C-6.55593899 13.51325833 -6.06425196 12.08299212 -4.5 10.0625 C-2.78284932 7.70141782 -2.39765184 5.86309322 -2 3 C-1.34 3 -0.68 3 0 3 C0 2.01 0 1.02 0 0 Z " fill="#F97454" transform="translate(86,28)"/>
<path d="M0 0 C6.27 0 12.54 0 19 0 C19 0.99 19 1.98 19 3 C17.865625 3.309375 16.73125 3.61875 15.5625 3.9375 C12.21224901 4.62924531 12.21224901 4.62924531 11 6 C5.78991597 6.42016807 5.78991597 6.42016807 3 6 C1 4.125 1 4.125 0 2 C0 1.34 0 0.68 0 0 Z " fill="#E6E6EB" transform="translate(38,184)"/>
<path d="M0 0 C0.94875 0.04125 1.8975 0.0825 2.875 0.125 C2.57395795 2.93472581 1.82775592 4.18169289 0 6.375 C-4.61345527 8.95853495 -8.95047942 8.45123948 -14.125 8.125 C-13.465 7.795 -12.805 7.465 -12.125 7.125 C-12.125 6.135 -12.125 5.145 -12.125 4.125 C-11.01125 3.83625 -9.8975 3.5475 -8.75 3.25 C-4.92667502 2.06345087 -3.90495138 0.15619806 0 0 Z " fill="#1F1C33" transform="translate(54.125,186.875)"/>
<path d="M0 0 C0.33 0 0.66 0 1 0 C2.40374866 6.69480129 2.01015395 10.63227979 -1.3359375 16.6328125 C-4.70460176 21.42485603 -9.41330837 25.98071387 -15 28 C-17.78824758 28.13997227 -20.46827116 28.1888913 -23.25 28.125 C-23.99507813 28.11597656 -24.74015625 28.10695313 -25.5078125 28.09765625 C-27.33868059 28.07418358 -29.16938238 28.03831525 -31 28 C-31 27.34 -31 26.68 -31 26 C-29.76636719 26.08701172 -29.76636719 26.08701172 -28.5078125 26.17578125 C-20.61606701 26.4947317 -14.32272551 26.07647401 -8 21 C-2.64146058 14.80592948 -0.88204274 7.9992152 0 0 Z " fill="#131CDE" transform="translate(122,97)"/>
<path d="M0 0 C0 3 0 3 -1.21484375 4.46484375 C-10.77678256 12.6391089 -20.74041331 14.76205973 -33.05175781 14.20556641 C-37.11941553 13.77637245 -40.56433483 12.13774722 -44 10 C-44 9.34 -44 8.68 -44 8 C-43.40832031 8.20496094 -42.81664063 8.40992188 -42.20703125 8.62109375 C-31.24270147 12.35933996 -22.02124208 13.32519675 -11 9 C-6.84359302 6.49795238 -3.37875801 3.46116675 0 0 Z " fill="#1AA7FF" transform="translate(136,121)"/>
<path d="M0 0 C0.66 0 1.32 0 2 0 C2 7.59 2 15.18 2 23 C0.68 23 -0.64 23 -2 23 C-1.86183041 19.35383329 -1.71318466 15.70816926 -1.5625 12.0625 C-1.50352539 10.50112305 -1.50352539 10.50112305 -1.44335938 8.90820312 C-1.40146484 7.91884766 -1.35957031 6.92949219 -1.31640625 5.91015625 C-1.27974854 4.99371338 -1.24309082 4.07727051 -1.20532227 3.13305664 C-1 1 -1 1 0 0 Z " fill="#1B1833" transform="translate(166,171)"/>
<path d="M0 0 C0.33 0 0.66 0 1 0 C1 2.31 1 4.62 1 7 C1.66 7 2.32 7 3 7 C3.33 9.64 3.66 12.28 4 15 C6.64 15.33 9.28 15.66 12 16 C12 16.33 12 16.66 12 17 C10.9275 17.103125 9.855 17.20625 8.75 17.3125 C5.14179128 17.97400493 3.63604977 18.57483421 1 21 C1.061875 20.21625 1.12375 19.4325 1.1875 18.625 C1.0946875 17.325625 1.0946875 17.325625 1 16 C-1.77260299 14.06201737 -1.77260299 14.06201737 -4 13 C-3.525625 12.525625 -3.05125 12.05125 -2.5625 11.5625 C-0.31923904 7.88355203 -0.26260422 4.2378888 0 0 Z " fill="#1D62F7" transform="translate(100,33)"/>
<path d="M0 0 C1.32 0.33 2.64 0.66 4 1 C1.05862794 3.81881489 -1.72519544 4.53930978 -5.70703125 5.1796875 C-9.17475528 4.90794081 -11.85466787 3.46453342 -15 2 C-14.85879984 4.58366245 -14.71221667 7.16682885 -14.5625 9.75 C-14.52318359 10.47960938 -14.48386719 11.20921875 -14.44335938 11.9609375 C-14.23852902 15.4272973 -13.9147998 18.65333026 -13 22 C-13.99 21.67 -14.98 21.34 -16 21 C-16 14.4 -16 7.8 -16 1 C-10.72 1.33 -5.44 1.66 0 2 C0 1.34 0 0.68 0 0 Z " fill="#C4F3FE" transform="translate(91,47)"/>
<path d="M0 0 C3.625 0.25 3.625 0.25 5.5625 1.5625 C6.625 3.25 6.625 3.25 6.625 6.25 C2.335 6.25 -1.955 6.25 -6.375 6.25 C-3.99332061 0.29580153 -3.99332061 0.29580153 0 0 Z " fill="#DFDFE4" transform="translate(44.375,173.75)"/>
<path d="M0 0 C1.79379098 0.44994757 3.58498928 0.91024143 5.375 1.375 C6.37273437 1.63023437 7.37046875 1.88546875 8.3984375 2.1484375 C11 3 11 3 13 5 C15.13592982 5.42355123 15.13592982 5.42355123 17.5 5.5625 C21.81081081 5.90540541 21.81081081 5.90540541 24 7 C26.30883723 7.03015273 28.59934256 6.93346824 30.90625 6.83984375 C33 7 33 7 35 9 C14.55869373 9.95322154 14.55869373 9.95322154 5 4 C4.07960938 3.47019531 3.15921875 2.94039062 2.2109375 2.39453125 C1.48132813 1.93433594 0.75171875 1.47414062 0 1 C0 0.67 0 0.34 0 0 Z " fill="#2389EA" transform="translate(72,137)"/>
<path d="M0 0 C6.09859495 0.23916059 6.09859495 0.23916059 8.578125 2.33203125 C12 6.37338362 12 6.37338362 12 9 C12.66 9 13.32 9 14 9 C14.27714844 9.90363281 14.55429688 10.80726562 14.83984375 11.73828125 C15.20207031 12.91777344 15.56429687 14.09726562 15.9375 15.3125 C16.29714844 16.48425781 16.65679687 17.65601563 17.02734375 18.86328125 C17.66372279 20.91553977 18.32053379 22.96160137 19 25 C18.0625 27.1875 18.0625 27.1875 17 29 C16.76925781 28.09378906 16.53851563 27.18757813 16.30078125 26.25390625 C12.65904462 12.25509426 12.65904462 12.25509426 3 2 C2.01 1.34 1.02 0.68 0 0 Z " fill="#15A5FE" transform="translate(105,28)"/>
<path d="M0 0 C0.33 0 0.66 0 1 0 C1.02578125 0.92941406 1.0515625 1.85882813 1.078125 2.81640625 C1.18221777 12.82170896 1.18221777 12.82170896 6 21 C10.01559579 21.86621374 13.90037286 22.04512168 18 22 C15.1706922 24.8293078 12.93155659 24.73345379 9 25 C5.32165406 24.31565657 4.17140532 23.1945682 1.6875 20.375 C-1.50525459 14.38698235 -0.28367789 6.56399121 0 0 Z " fill="#30D2F2" transform="translate(76,49)"/>
<path d="M0 0 C4.28849188 0.4764991 6.3664682 2.72587939 9 6 C9.8125 9.8125 9.8125 9.8125 10 13 C9.01 13 8.02 13 7 13 C7 12.34 7 11.68 7 11 C6.01 10.67 5.02 10.34 4 10 C3.27129528 7.68529088 2.60760482 5.3494053 2 3 C1.34 2.01 0.68 1.02 0 0 Z " fill="#0723F8" transform="translate(107,31)"/>
<path d="M0 0 C0.33 0.99 0.66 1.98 1 3 C0.2884375 3.6496875 0.2884375 3.6496875 -0.4375 4.3125 C-2.23686957 6.02309613 -2.23686957 6.02309613 -3 9 C-6.63 9 -10.26 9 -14 9 C-14 7.35 -14 5.7 -14 4 C-13.01 4.495 -13.01 4.495 -12 5 C-8.62642666 5.50070321 -8.62642666 5.50070321 -5 5 C-2.06026719 2.64581624 -2.06026719 2.64581624 0 0 Z " fill="#FEF0F0" transform="translate(94,40)"/>
<path d="M0 0 C1.8871875 0.5878125 1.8871875 0.5878125 3.8125 1.1875 C3.8125 1.5175 3.8125 1.8475 3.8125 2.1875 C2.1625 2.1875 0.5125 2.1875 -1.1875 2.1875 C-1.1875 3.1775 -1.1875 4.1675 -1.1875 5.1875 C1.4525 5.5175 4.0925 5.8475 6.8125 6.1875 C6.8125 6.5175 6.8125 6.8475 6.8125 7.1875 C5.02091511 7.21446365 3.22921527 7.23387917 1.4375 7.25 C0.43976562 7.26160156 -0.55796875 7.27320313 -1.5859375 7.28515625 C-4.1875 7.1875 -4.1875 7.1875 -6.1875 6.1875 C-7 4.3125 -7 4.3125 -7.1875 2.1875 C-5.40823634 -1.37102733 -3.44402529 -0.86100632 0 0 Z " fill="#444256" transform="translate(43.1875,188.8125)"/>
<path d="M0 0 C-3 2 -3 2 -6 2 C-6.33 3.32 -6.66 4.64 -7 6 C-8.65 6.33 -10.3 6.66 -12 7 C-12 8.98 -12 10.96 -12 13 C-12.33 13 -12.66 13 -13 13 C-13.32470459 8.86001651 -13.4304413 6.66000999 -11.125 3.125 C-7.51077202 -0.48922798 -4.9985891 -0.09256646 0 0 Z " fill="#F6B56D" transform="translate(89,27)"/>
<path d="M0 0 C1.21105854 3.63317562 0.3974399 4.82943427 -1.25390625 8.14257812 C-1.58261719 8.77615234 -1.91132813 9.40972656 -2.25 10.0625 C-2.71986328 11.01866211 -2.71986328 11.01866211 -3.19921875 11.99414062 C-4.86049853 15.26500062 -5.89123946 16.92749297 -9 19 C-8.42430598 14.97014183 -7.17457161 12.41718396 -5 9 C-4.09627245 7.40026735 -3.20094869 5.79576832 -2.3125 4.1875 C-1.87550781 3.39730469 -1.43851563 2.60710937 -0.98828125 1.79296875 C-0.66214844 1.20128906 -0.33601562 0.60960938 0 0 Z " fill="#39CAF9" transform="translate(142,111)"/>
<path d="M0 0 C-0.61277612 2.96175123 -1.25372522 4.38058783 -3 7 C-4.32 7 -5.64 7 -7 7 C-7 5.02 -7 3.04 -7 1 C-4.53721199 -0.231394 -2.7204945 -0.07159196 0 0 Z " fill="#EF8865" transform="translate(170,157)"/>
<path d="M0 0 C0.66 0 1.32 0 2 0 C2.30788712 3.92556076 2.30854114 6.3957736 0.5 9.9375 C-3.11177591 12.91721513 -5.41080579 12.38243285 -10 12 C-10 11.67 -10 11.34 -10 11 C-8.906875 10.855625 -7.81375 10.71125 -6.6875 10.5625 C-4.71531062 10.12436235 -4.71531062 10.12436235 -3 9 C-1.47156347 6.11705247 -0.68691621 3.17944076 0 0 Z " fill="#E94F5C" transform="translate(93,33)"/>
<path d="M0 0 C0.33 0 0.66 0 1 0 C2.65668018 7.90109009 1.12912339 12.15622802 -3 19 C-3.99 18.67 -4.98 18.34 -6 18 C-5.65066406 17.3709375 -5.30132812 16.741875 -4.94140625 16.09375 C-2.01558215 10.59021685 -0.34617589 6.23116607 0 0 Z " fill="#2535E6" transform="translate(122,97)"/>
<path d="M0 0 C0 0.33 0 0.66 0 1 C-0.60328125 1.01417969 -1.2065625 1.02835938 -1.828125 1.04296875 C-7.20492297 1.31772315 -7.20492297 1.31772315 -11.5 4.375 C-13.10214382 6.97957124 -13.10214382 6.97957124 -14 10 C-14.66 10 -15.32 10 -16 10 C-15.71610268 6.68786459 -14.96676604 4.95175715 -13.0625 2.1875 C-8.7518078 -0.89156586 -5.13347212 -0.44855582 0 0 Z " fill="#C3E6FE" transform="translate(115,50)"/>
<path d="M0 0 C0.99 0.33 1.98 0.66 3 1 C2.34 1 1.68 1 1 1 C1 2.98 1 4.96 1 7 C4.26954202 6.43628586 5.82575883 5.50037734 8 3 C6.73058503 6.91402949 5.48832306 8.79072873 2 11 C1.34 10.67 0.68 10.34 0 10 C0 6.7 0 3.4 0 0 Z " fill="#FCEAD2" transform="translate(162,157)"/>
<path d="M0 0 C1.76462683 3.08809695 2 4.23312136 2 8 C1.360625 7.731875 0.72125 7.46375 0.0625 7.1875 C-3.91202261 5.64635858 -7.94884495 4.32390688 -12 3 C-12 2.67 -12 2.34 -12 2 C-7.45194365 1.82164485 -4.1205746 2.00214565 0 4 C0 2.68 0 1.36 0 0 Z " fill="#0E53EC" transform="translate(119,46)"/>
<path d="M0 0 C5.7834593 0.51030523 9.21241049 3.91447891 12.875 8.1875 C14 10 14 10 14 12 C13.34 12 12.68 12 12 12 C10.44921875 10.390625 10.44921875 10.390625 8.6875 8.25 C6.01637687 5.09829823 3.35817172 2.44230671 0 0 Z " fill="#24A5EA" transform="translate(125,32)"/>
<path d="M0 0 C0.66 0 1.32 0 2 0 C2.33 1.98 2.66 3.96 3 6 C2.34 6 1.68 6 1 6 C1 6.99 1 7.98 1 9 C-0.32 8.67 -1.64 8.34 -3 8 C-2.690625 7.236875 -2.38125 6.47375 -2.0625 5.6875 C-1.32106407 3.81210323 -0.63771783 1.91315348 0 0 Z " fill="#222038" transform="translate(54,174)"/>
<path d="M0 0 C0.56847656 0.19335938 1.13695313 0.38671875 1.72265625 0.5859375 C6.45364938 2.18136423 11.18794425 3.66900586 16 5 C16 5.33 16 5.66 16 6 C9.741346 6.5326514 5.54891215 4.81849506 0 2 C0 1.34 0 0.68 0 0 Z " fill="#157AFF" transform="translate(92,129)"/>
<path d="M0 0 C2.375 -0.1875 2.375 -0.1875 5 0 C5.66 0.99 6.32 1.98 7 3 C5.88625 3.474375 4.7725 3.94875 3.625 4.4375 C1.73289006 5.25306463 -0.15712709 6.07856355 -2 7 C-2 5.68 -2 4.36 -2 3 C-1.34 3 -0.68 3 0 3 C0 2.01 0 1.02 0 0 Z " fill="#F78652" transform="translate(86,28)"/>
<path d="M0 0 C2.69082872 0.17635452 5.32851446 0.61835921 8 1 C7.67 1.99 7.34 2.98 7 4 C4.36 4 1.72 4 -1 4 C-1 1 -1 1 0 0 Z " fill="#19162E" transform="translate(84,190)"/>
<path d="M0 0 C0.99 0 1.98 0 3 0 C2.84152588 0.57073242 2.68305176 1.14146484 2.51977539 1.72949219 C2.00638657 3.97210188 1.79834104 6.03317915 1.68359375 8.328125 C1.64169922 9.12734375 1.59980469 9.9265625 1.55664062 10.75 C1.51732422 11.575 1.47800781 12.4 1.4375 13.25 C1.39431641 14.09046875 1.35113281 14.9309375 1.30664062 15.796875 C1.20091457 17.86440671 1.09998705 19.93218281 1 22 C0.67 22 0.34 22 0 22 C0 14.74 0 7.48 0 0 Z " fill="#15132A" transform="translate(110,171)"/>
<path d="M0 0 C0.33 0 0.66 0 1 0 C1.23617008 6.84893235 0.28895526 11.89194023 -3 18 C-3.66 18 -4.32 18 -5 18 C-4.06783608 15.13692509 -3.14128013 12.32411323 -1.9375 9.5625 C-0.78274104 6.40615886 -0.39163242 3.32887558 0 0 Z " fill="#C7F5FF" transform="translate(143,107)"/>
<path d="M0 0 C0.71484375 1.765625 0.71484375 1.765625 1 4 C-0.43359375 5.921875 -0.43359375 5.921875 -2.4375 7.75 C-3.42556641 8.67039063 -3.42556641 8.67039063 -4.43359375 9.609375 C-5.20896484 10.29773438 -5.20896484 10.29773438 -6 11 C-6.33 10.01 -6.66 9.02 -7 8 C-6.34 8 -5.68 8 -5 8 C-5 7.34 -5 6.68 -5 6 C-4.34 6 -3.68 6 -3 6 C-3 4.68 -3 3.36 -3 2 C-2.01 1.34 -1.02 0.68 0 0 Z " fill="#19D5F4" transform="translate(132,127)"/>
<path d="M0 0 C0.66 0 1.32 0 2 0 C3.33333333 4 4.66666667 8 6 12 C5.34 13.32 4.68 14.64 4 16 C2.68 10.72 1.36 5.44 0 0 Z " fill="#0E8DFE" transform="translate(118,41)"/>
<path d="M0 0 C2.31 0 4.62 0 7 0 C6.34 0.66 5.68 1.32 5 2 C5.99 2.66 6.98 3.32 8 4 C4.7 4 1.4 4 -2 4 C-1.34 3.67 -0.68 3.34 0 3 C0 2.01 0 1.02 0 0 Z " fill="#121127" transform="translate(42,191)"/>
<path d="M0 0 C2.64 0 5.28 0 8 0 C7.34 1.32 6.68 2.64 6 4 C4.35 3.67 2.7 3.34 1 3 C0.67 2.01 0.34 1.02 0 0 Z " fill="#1A172D" transform="translate(149,170)"/>
<path d="M0 0 C2.64 0 5.28 0 8 0 C8 0.66 8 1.32 8 2 C6.88625 2.309375 5.7725 2.61875 4.625 2.9375 C1.2054845 3.82326483 1.2054845 3.82326483 -1 5 C-0.67 3.35 -0.34 1.7 0 0 Z " fill="#373648" transform="translate(192,169)"/>
<path d="M0 0 C-1.28519565 2.86697492 -2.57129254 4.97607712 -5 7 C-5.66 7 -6.32 7 -7 7 C-4.60526316 0 -4.60526316 0 0 0 Z " fill="#353449" transform="translate(39,170)"/>
<path d="M0 0 C2.9375 0.75 2.9375 0.75 6 2 C6.75 4.0625 6.75 4.0625 7 6 C7.66 6.33 8.32 6.66 9 7 C4.68381834 7 3.07210341 4.86729652 0 2 C0 1.34 0 0.68 0 0 Z " fill="#0729F7" transform="translate(85,121)"/>
<path d="M0 0 C0 0.33 0 0.66 0 1 C-1.0725 1.103125 -2.145 1.20625 -3.25 1.3125 C-6.85820872 1.97400493 -8.36395023 2.57483421 -11 5 C-10.625 2.5625 -10.625 2.5625 -10 0 C-6.7169902 -1.6415049 -3.57454967 -0.51888624 0 0 Z " fill="#2475F1" transform="translate(112,49)"/>
<path d="M0 0 C0.66 0.33 1.32 0.66 2 1 C1.505 1.556875 1.01 2.11375 0.5 2.6875 C-1.24754367 5.38162983 -1.26218749 6.85375007 -1 10 C-3 8 -3 8 -3.125 4.375 C-3.08375 3.26125 -3.0425 2.1475 -3 1 C-2.01 0.67 -1.02 0.34 0 0 Z " fill="#F69C54" transform="translate(80,33)"/>
<path d="M0 0 C0.33 1.32 0.66 2.64 1 4 C-0.8125 5.5625 -0.8125 5.5625 -3 7 C-3.99 6.67 -4.98 6.34 -6 6 C-4.02 4.02 -2.04 2.04 0 0 Z " fill="#C6FBFF" transform="translate(134,129)"/>
<path d="M0 0 C0 2.62113708 -0.31292445 4.50935112 -1 7 C-2.98 7.33 -4.96 7.66 -7 8 C-6.02133662 6.85373678 -5.04205413 5.70800212 -4.0625 4.5625 C-3.51722656 3.92441406 -2.97195312 3.28632812 -2.41015625 2.62890625 C-1.63204305 1.73008851 -0.84063472 0.84063472 0 0 Z " fill="#FE4753" transform="translate(92,36)"/>
<path d="M0 0 C3.86107457 2.57404971 3.94319692 4.61020259 5 9 C2.5 6.75 2.5 6.75 0 4 C0 2.68 0 1.36 0 0 Z " fill="#1E34E3" transform="translate(60,121)"/>
<path d="M0 0 C2.31 0.33 4.62 0.66 7 1 C5.02 1.99 5.02 1.99 3 3 C3 3.99 3 4.98 3 6 C2.34 6 1.68 6 1 6 C0.67 4.02 0.34 2.04 0 0 Z " fill="#2F3AD7" transform="translate(98,27)"/>
<path d="M0 0 C1.98 0 3.96 0 6 0 C5.625 1.9375 5.625 1.9375 5 4 C4.01 4.495 4.01 4.495 3 5 C3 4.01 3 3.02 3 2 C2.01 2 1.02 2 0 2 C0 1.34 0 0.68 0 0 Z " fill="#262539" transform="translate(51,187)"/>
<path d="M0 0 C6.52307692 0.49230769 6.52307692 0.49230769 8.9375 3.0625 C9.288125 3.701875 9.63875 4.34125 10 5 C5.59885603 4.49701212 3.28804981 2.91227269 0 0 Z " fill="#1BB0FD" transform="translate(105,28)"/>
</svg>
