<?xml version="1.0" standalone="no"?>
<!DOCTYPE svg PUBLIC "-//W3C//DTD SVG 20010904//EN"
 "http://www.w3.org/TR/2001/REC-SVG-20010904/DTD/svg10.dtd">
<svg version="1.0" xmlns="http://www.w3.org/2000/svg"
 width="377.000000pt" height="255.000000pt" viewBox="0 0 377.000000 255.000000"
 preserveAspectRatio="xMidYMid meet">

<g transform="translate(0.000000,255.000000) scale(0.100000,-0.100000)"
fill="#000000" stroke="none">
<path d="M2009 2263 l54 -4 -32 -20 c-24 -15 -30 -23 -22 -32 14 -17 1 -34
-29 -40 -20 -3 -18 -5 10 -6 68 -2 130 -63 130 -126 0 -43 -27 -93 -59 -109
-24 -13 -64 -16 -191 -16 l-160 0 -1 -157 c0 -87 -2 -166 -4 -175 -4 -22 7
-23 51 -2 47 22 58 46 64 134 l5 75 130 5 c149 6 177 17 232 88 40 53 57 112
50 178 -13 129 -108 216 -229 212 l-53 -2 54 -3z"/>
<path d="M1527 1985 c-11 -201 -9 -312 7 -349 17 -41 61 -76 94 -76 l25 0 -6
183 c-4 100 -7 220 -8 267 -1 47 -4 75 -6 63 -4 -18 -10 -21 -46 -20 -38 2
-42 5 -47 32 -3 17 -9 -28 -13 -100z"/>
<path d="M1750 1095 l0 -135 25 0 25 0 0 135 0 135 -25 0 -25 0 0 -135z"/>
<path d="M780 1090 l0 -130 30 0 c30 0 30 1 30 55 l0 55 50 0 c41 0 56 5 75
25 32 31 32 69 0 100 -22 22 -32 25 -105 25 l-80 0 0 -130z m138 81 c8 -4 12
-19 10 -32 -2 -20 -9 -24 -45 -27 l-43 -3 0 35 c0 34 2 36 33 36 17 0 38 -4
45 -9z"/>
<path d="M1950 1090 l0 -130 25 0 c24 0 25 3 25 55 l0 55 55 0 c48 0 55 2 55
20 0 18 -7 20 -55 20 l-55 0 0 35 0 35 60 0 c53 0 60 2 60 20 0 18 -7 20 -85
20 l-85 0 0 -130z"/>
<path d="M2140 1200 c0 -16 7 -20 35 -20 l35 0 0 -110 0 -110 30 0 30 0 0 110
0 110 40 0 c33 0 40 3 40 20 0 19 -7 20 -105 20 -98 0 -105 -1 -105 -20z"/>
<path d="M2360 1200 c0 -17 7 -20 40 -20 l40 0 0 -110 0 -110 25 0 25 0 0 110
0 110 40 0 c33 0 40 3 40 20 0 19 -7 20 -105 20 -98 0 -105 -1 -105 -20z"/>
<path d="M2600 1090 l0 -130 30 0 c30 0 30 1 30 55 l0 55 60 0 60 0 0 -55 c0
-52 1 -55 25 -55 l25 0 0 130 0 130 -25 0 c-24 0 -25 -3 -25 -55 l0 -55 -60 0
-60 0 0 55 c0 54 0 55 -30 55 l-30 0 0 -130z"/>
<path d="M1412 1200 c-14 -6 -22 -17 -20 -27 2 -14 -5 -19 -37 -21 -22 -2 -46
-9 -54 -15 -11 -9 -15 -9 -18 1 -3 6 -16 12 -29 12 -25 0 -25 0 -22 -92 l3
-93 28 -3 c27 -3 27 -3 27 61 0 73 8 85 61 85 l36 0 6 -56 c7 -65 33 -95 76
-90 34 4 41 35 9 40 -20 3 -23 9 -26 56 -3 50 -2 52 22 52 19 0 26 5 26 20 0
15 -7 20 -25 20 -21 0 -25 5 -25 30 0 32 -3 34 -38 20z"/>
<path d="M1043 1126 c-23 -20 -28 -32 -28 -71 0 -39 5 -51 28 -71 40 -34 90
-32 128 5 86 86 -36 216 -128 137z m91 -32 c30 -29 10 -94 -28 -94 -20 0 -38
27 -38 55 0 48 36 70 66 39z"/>
<path d="M1539 1124 c-18 -19 -24 -37 -24 -69 0 -73 58 -115 116 -85 13 7 19
7 19 0 0 -5 11 -10 25 -10 25 0 25 0 25 95 0 95 0 95 -25 95 -14 0 -25 -5 -25
-10 0 -7 -6 -7 -19 0 -33 17 -66 11 -92 -16z m95 -30 c29 -28 13 -94 -22 -94
-27 0 -42 20 -42 55 0 50 33 71 64 39z"/>
</g>
</svg>
